<svg width="144" height="76" viewBox="0 0 144 76" fill="none" xmlns="http://www.w3.org/2000/svg">
<path d="M0 18.3945C0 13.1139 4.10587 8.74338 9.37622 8.41399L133.376 0.663988C139.133 0.304177 144 4.8763 144 10.6445V57.6055C144 62.8861 139.894 67.2566 134.624 67.586L10.6238 75.336C4.86682 75.6958 0 71.1237 0 65.3555V18.3945Z" fill="white"/>
<path d="M37.7665 53.9179L18.7845 55.2453L18.9732 49.8395L37.9553 48.5121L37.7665 53.9179ZM33.6349 44.2402L19.0852 45.2576L19.2605 40.2379L33.8102 39.2205L33.6349 44.2402ZM28.6168 36.5503L28.6483 46.6592C28.648 47.8148 28.3111 48.7451 27.6377 49.4503C26.9725 50.1468 25.8755 50.8253 24.3465 51.486L20.9485 49.7013C21.218 49.5541 21.4198 49.3956 21.5539 49.2257C21.6963 49.0472 21.7919 48.8319 21.8408 48.5797C21.8979 48.3189 21.9293 47.9957 21.9347 47.6102L21.9201 37.0186C21.9144 35.5745 22.2511 34.3072 22.93 33.2165C23.6169 32.1252 24.5764 31.2557 25.8085 30.6078C27.0487 29.9593 28.4999 29.577 30.162 29.4608C31.4949 29.3676 32.6579 29.4387 33.6509 29.6742C34.652 29.9091 35.4913 30.3039 36.1688 30.8583C36.8466 31.4048 37.359 32.0992 37.706 32.9416C38.0614 33.7754 38.2596 34.7526 38.3005 35.8732L32.0273 36.6007C32.0074 36.0243 31.9103 35.5938 31.736 35.309C31.5617 35.0243 31.3278 34.84 31.0344 34.7562C30.741 34.6724 30.4055 34.6437 30.0281 34.6701C29.6989 34.6932 29.4316 34.7801 29.226 34.9308C29.0205 35.0816 28.869 35.2929 28.7714 35.5645C28.6738 35.8361 28.6223 36.1647 28.6168 36.5503ZM53.2317 28.1846L52.3687 52.8968L45.672 53.3651L46.3193 34.8309L46.1747 34.8411L40.6659 38.4522L40.8648 32.7568L47.065 28.6158L53.2317 28.1846ZM66.375 52.2544C64.9377 52.355 63.5805 52.2252 62.3035 51.8651C61.0348 51.4964 59.9197 50.8562 58.9583 49.9444C57.9969 49.0326 57.2587 47.8083 56.7436 46.2715C56.2366 44.7341 56.0263 42.8429 56.1127 40.598C56.1907 38.5944 56.5105 36.7745 57.0723 35.1383C57.6421 33.5015 58.4164 32.0872 59.3952 30.8953C60.382 29.7028 61.5443 28.7629 62.8819 28.0755C64.2198 27.3801 65.6958 26.976 67.3097 26.8631C69.1244 26.7362 70.7101 26.9744 72.0668 27.5777C73.4234 28.181 74.4908 29.0412 75.2688 30.1584C76.0551 31.267 76.4919 32.5205 76.5793 33.9187L69.9789 34.3802C69.8508 33.691 69.5153 33.2049 68.9725 32.9219C68.438 32.6302 67.8175 32.5091 67.1109 32.5585C65.7057 32.6568 64.6525 33.3403 63.9514 34.6091C63.2583 35.8773 62.8689 37.5095 62.7831 39.5056L62.9277 39.4955C63.2672 38.7174 63.7636 38.0367 64.4168 37.4534C65.0699 36.8701 65.8231 36.4041 66.6763 36.0556C67.5296 35.707 68.4259 35.4999 69.3654 35.4342C70.8589 35.3298 72.1519 35.5764 73.2444 36.1741C74.345 36.7712 75.1879 37.6351 75.7732 38.7658C76.3585 39.8965 76.6207 41.2182 76.5599 42.7311C76.5061 44.5003 76.0345 46.0781 75.145 47.4643C74.2636 48.85 73.0674 49.9609 71.5563 50.7968C70.0453 51.6327 68.3182 52.1186 66.375 52.2544ZM66.5038 47.1899C67.1703 47.1433 67.7658 46.9492 68.2903 46.6075C68.8229 46.2654 69.243 45.8187 69.5507 45.2676C69.8663 44.7159 70.0319 44.1024 70.0475 43.4273C70.0794 42.7429 69.9559 42.1497 69.6771 41.6476C69.4065 41.1369 69.0157 40.747 68.5044 40.4778C68.0012 40.208 67.4163 40.0964 66.7499 40.143C66.2601 40.1773 65.8033 40.2975 65.3796 40.5037C64.9642 40.7012 64.5983 40.9716 64.2819 41.3147C63.9658 41.6498 63.7119 42.0407 63.5201 42.4874C63.3366 42.9256 63.2319 43.3983 63.2062 43.9057C63.1906 44.5808 63.3221 45.1735 63.6007 45.6836C63.8793 46.1938 64.2701 46.5837 64.7734 46.8535C65.2766 47.1232 65.8534 47.2354 66.5038 47.1899ZM102.748 39.9369L84.5745 48.3818L84.7869 42.3003L96.3432 37.544L96.1404 37.8471L96.164 37.1714L96.3466 37.4475L85.0666 34.2881L85.279 28.2066L102.95 34.145L102.748 39.9369ZM124.908 38.3874L106.735 46.8322L106.947 40.7507L118.503 35.9945L118.3 36.2975L118.324 35.6218L118.507 35.8979L107.227 32.7385L107.439 26.657L125.11 32.5954L124.908 38.3874Z" fill="black"/>
</svg>
