<svg xmlns:inkscape="http://www.inkscape.org/namespaces/inkscape" xmlns:sodipodi="http://sodipodi.sourceforge.net/DTD/sodipodi-0.dtd" xmlns="http://www.w3.org/2000/svg" xmlns:svg="http://www.w3.org/2000/svg" width="152" height="76" viewBox="0 0 152 76" fill="none" id="svg10" sodipodi:docname="vs-logo-trams.svg" inkscape:version="1.1.1 (3bf5ae0d25, 2021-09-20)"><defs id="defs14"></defs><g style="fill:none" id="g2492"><path d="M 136.103,0.883624 8.01655,9.8496 C 3.60813,10.1636 0,14.124 0,18.6422 v 49.0809 c 0,4.5181 3.60813,7.9583 8.01655,7.6443 L 136.103,66.4014 c 4.408,-0.314 8.016,-4.2744 8.016,-8.7926 V 8.52791 c 0,-4.51815 -3.608,-7.958306 -8.016,-7.644286 z M 32.9168,58.7337 l -8.1675,0.5858 -6.3108,-35.428 6.6126,-0.4734 3.7591,24.0952 3.5029,-24.6154 7.0013,-0.5015 z m 17.6794,-1.2655 -7.7376,0.5531 V 22.1386 l 7.7376,-0.5531 z M 73.7586,55.8091 68.5271,56.184 61.3519,38.0927 v 18.6069 l -6.6126,0.4733 v -35.878 l 5.4465,-0.389 7.1751,16.7603 V 20.3904 l 6.3977,-0.4593 V 55.8137 Z M 95.54,24.257 90.3085,24.632 V 54.6233 L 82.5297,55.181 V 25.1897 L 77.257,25.5694 V 19.678 L 95.54,18.3656 Z m 9.649,15.6964 c -4.047,0.2906 -5.9997,-1.6545 -6.1597,-6.5242 l 4.0467,-0.9139 c 0.055,2.8402 0.686,3.8526 1.875,3.7683 0.979,-0.0704 1.189,-0.9234 1.189,-1.6826 0,-1.8139 -0.901,-2.8356 -2.355,-4.0026 l -1.852,-1.5186 c -1.637,-1.2889 -2.8809,-2.8543 -2.8809,-5.5117 0,-3.712 2.2999,-5.9102 5.9999,-6.1726 4.573,-0.3281 5.236,3.2808 5.314,5.8492 l -4.07,0.8061 c -0.055,-1.9497 -0.183,-3.1824 -1.4,-3.098 -0.873,0.0609 -1.271,1.0405 -1.271,1.7998 0,1.6263 0.819,2.4324 2.063,3.4542 l 1.769,1.4717 c 1.852,1.4951 3.33,3.3089 3.33,6.346 0,3.0371 -2.196,5.6851 -5.602,5.9289 z m 14.858,-1.4436 c -0.476,0.1172 -1.559,0.3281 -2.593,0.4031 -3.462,0.2484 -4.285,-1.2936 -4.285,-4.1104 v -8.5067 l -1.482,0.1078 v -2.9011 l 1.482,-0.1078 v -4.7713 l 4.363,-0.314 v 4.7712 l 2.167,-0.1546 v 2.9011 l -2.167,0.1547 v 8.0755 c 0,0.8952 0.553,1.2326 1.349,1.1764 0.448,-0.0328 0.846,-0.1125 1.161,-0.1922 v 3.4683 z m 5.639,-0.3468 -3.508,0.2531 v -3.5948 l 3.508,-0.2531 z" fill="#f5f5f5" id="path2476"></path><path d="m 150.92,2.12564 c -0.128,-0.41713 -0.33,-0.79677 -0.595,-1.129538 -0.27,-0.332768 -0.622,-0.595229 -1.052,-0.773331 -0.43,-0.1827874 -0.946,-0.2530891 -1.541,-0.2109072 -0.594,0.0421818 -1.116,0.1874742 -1.541,0.4311912 -0.425,0.243717 -0.782,0.553051 -1.056,0.923315 -0.27,0.37026 -0.471,0.77802 -0.599,1.2139 -0.128,0.43119 -0.192,0.87644 -0.192,1.31232 0,0.43588 0.064,0.86239 0.192,1.27483 0.128,0.41713 0.329,0.80145 0.599,1.13422 0.274,0.33746 0.626,0.59992 1.056,0.77802 0.425,0.18279 0.947,0.25309 1.541,0.21091 0.595,-0.04218 1.116,-0.18747 1.541,-0.43119 0.426,-0.24372 0.782,-0.55305 1.052,-0.92331 0.27,-0.37027 0.467,-0.77803 0.595,-1.21859 0.128,-0.43588 0.192,-0.87644 0.192,-1.30764 0,-0.43119 -0.064,-0.86707 -0.192,-1.2842 z m -3.197,-1.424806 c 0.462,-0.032808 0.864,0.018746 1.198,0.159352 0.329,0.140604 0.608,0.342134 0.819,0.604604 0.215,0.26246 0.375,0.5718 0.48,0.91394 0.105,0.34683 0.16,0.70772 0.16,1.08267 0,0.37495 -0.055,0.73584 -0.16,1.09673 -0.105,0.3562 -0.265,0.68897 -0.485,0.98893 -0.215,0.29527 -0.489,0.53898 -0.818,0.73115 -0.33,0.18747 -0.732,0.29996 -1.194,0.33277 -0.462,0.03281 -0.864,-0.02344 -1.198,-0.16405 -0.334,-0.1406 -0.613,-0.34683 -0.828,-0.60929 -0.219,-0.26715 -0.379,-0.57648 -0.48,-0.91862 -0.105,-0.34683 -0.155,-0.70772 -0.155,-1.07798 0,-0.37027 0.05,-0.74522 0.155,-1.10611 0.101,-0.3562 0.265,-0.68428 0.48,-0.97955 0.215,-0.29059 0.494,-0.53431 0.828,-0.72178 0.334,-0.187477 0.736,-0.299958 1.198,-0.332766 z" fill="#f5f5f5" id="path2478"></path><path d="m 147.366,3.93946 0.197,-0.01406 0.476,1.53261 0.969,-0.0703 -0.617,-1.70134 c 0.196,-0.1078 0.329,-0.23903 0.402,-0.38432 0.069,-0.14529 0.105,-0.33277 0.105,-0.55774 0,-0.25309 -0.05,-0.44994 -0.155,-0.58586 -0.101,-0.13592 -0.247,-0.22965 -0.439,-0.27184 -0.192,-0.04218 -0.421,-0.06092 -0.691,-0.04218 l -1.166,0.08436 v 3.64639 l 0.919,-0.06562 V 3.94415 Z m 0,-1.52324 0.234,-0.01874 c 0.16,-0.00937 0.269,0.02812 0.338,0.11249 0.069,0.08436 0.096,0.20621 0.096,0.36088 0,0.16404 -0.037,0.29997 -0.105,0.40776 -0.069,0.1078 -0.206,0.16873 -0.407,0.18279 l -0.156,0.00937 z" fill="#f5f5f5" id="path2480"></path></g><path style="fill:#000000;fill-opacity:;stroke:#f5f5f5;stroke-width:0.293061" d="m 24.810274,59.029807 c -0.187839,-0.585738 -6.214938,-34.916235 -6.141896,-34.984382 0.176987,-0.165128 6.10485,-0.52088 6.232061,-0.374009 0.07465,0.08619 0.961635,5.496065 1.971073,12.021944 1.009437,6.525878 1.881742,11.865234 1.938455,11.865234 0.05671,0 0.889554,-5.526559 1.850759,-12.281242 l 1.747646,-12.281243 1.569251,-0.118859 c 0.863089,-0.06537 2.395179,-0.177401 3.404644,-0.248952 l 1.835393,-0.130092 -0.107603,0.469647 c -0.05918,0.258306 -1.496312,8.391184 -3.193624,18.073063 l -3.086021,17.603416 -3.426925,0.226893 c -1.884808,0.124791 -3.671969,0.265691 -3.971467,0.313109 -0.326491,0.05169 -0.575457,-0.01018 -0.621746,-0.154527 z" id="path7208"></path><path style="fill:#000000;fill-opacity:;stroke:#f5f5f5;stroke-width:0.293061" d="M 42.871094,40.095679 V 22.230728 l 3.271484,-0.229338 c 1.799317,-0.126136 3.513184,-0.228147 3.808594,-0.226692 l 0.537109,0.0026 v 17.764587 17.764587 l -0.634765,0.09799 c -0.349121,0.0539 -1.469727,0.148359 -2.490235,0.209918 -1.020507,0.06156 -2.44873,0.164639 -3.173828,0.229062 l -1.318359,0.117137 z" id="path7247"></path><path style="fill:#000000;fill-opacity:;stroke:#f5f5f5;stroke-width:0.293061;stroke-dasharray:1.17224, 0.293061" d="M 54.785157,39.289995 V 21.420047 l 1.416015,-0.11755 c 0.778809,-0.06465 1.981756,-0.138069 2.673217,-0.163148 l 1.257202,-0.0456 3.54057,8.248293 c 1.947314,4.536561 3.600812,8.308534 3.674439,8.382161 0.07363,0.07363 0.133869,-3.779918 0.133869,-8.563435 v -8.697305 l 2.099609,-0.128567 c 1.154786,-0.07071 2.561036,-0.180724 3.125,-0.244471 l 1.025391,-0.115904 V 37.849326 55.724129 L 71.63086,55.85417 c -1.154785,0.07152 -2.30684,0.145899 -2.560122,0.165279 -0.431425,0.03301 -0.684319,-0.528158 -4.003906,-8.884669 -1.948867,-4.90595 -3.609312,-8.985539 -3.689879,-9.065755 -0.08057,-0.08022 -0.146484,4.037682 -0.146484,9.150887 0,8.687305 -0.02241,9.303018 -0.341797,9.392594 -0.187988,0.05272 -1.396484,0.150611 -2.685547,0.217529 -1.289062,0.06692 -2.585449,0.168522 -2.880859,0.225789 l -0.537109,0.10412 z" id="path7286"></path><path style="fill:#000000;fill-opacity:1;stroke:#f5f5f5;stroke-width:0.293061;stroke-dasharray:1.17224, 0.293061" d="M 82.714844,40.021529 V 25.06259 l -1.708984,0.123082 c -0.939942,0.0677 -2.126465,0.171723 -2.636719,0.231174 l -0.927734,0.108091 v -2.846638 c 0,-2.795658 0.0079,-2.848222 0.439453,-2.93507 0.241699,-0.04864 3.823242,-0.315767 7.958984,-0.59362 4.135742,-0.277853 7.980957,-0.557477 8.544922,-0.621387 l 1.025391,-0.1162 v 2.837369 2.837368 l -0.732422,0.108165 c -0.402832,0.05949 -1.589356,0.165559 -2.636719,0.235706 l -1.904297,0.127542 v 14.984809 14.984808 l -2.978515,0.227602 c -1.638184,0.125182 -3.308106,0.227035 -3.710938,0.22634 l -0.732422,-0.0013 z" id="path7325"></path><path style="fill:#000000;fill-opacity:1;stroke:#f5f5f5;stroke-width:0.293061;stroke-dasharray:1.17224, 0.293061" d="m 102.79698,39.680147 c -1.87047,-0.526571 -3.02845,-1.972241 -3.4631,-4.32348 -0.348042,-1.882735 -0.421513,-1.77752 1.55978,-2.233701 0.97491,-0.224467 1.85382,-0.408122 1.95312,-0.408122 0.0993,0 0.18056,0.268697 0.18056,0.597105 0,2.372032 1.55773,3.899856 2.75524,2.702346 0.35606,-0.356059 0.40137,-0.590525 0.33638,-1.740637 -0.097,-1.716774 -0.48456,-2.265963 -3.2319,-4.57982 -2.39825,-2.019852 -3.249296,-3.145868 -3.579386,-4.735902 -0.443795,-2.13775 0.267917,-4.687437 1.630036,-5.839563 1.24193,-1.050466 2.61262,-1.524323 4.43338,-1.532653 2.05007,-0.0094 2.94256,0.387943 3.83859,1.708872 0.59666,0.879584 1.27757,3.486387 0.98666,3.777298 -0.10163,0.101626 -3.25678,0.822783 -3.7022,0.846193 -0.0806,0.0042 -0.14648,-0.330749 -0.14648,-0.744407 0,-2.032239 -1.15031,-2.998151 -2.25497,-1.893491 -0.38865,0.388642 -0.47941,0.675788 -0.47941,1.516719 0,1.51109 0.44613,2.16489 2.90267,4.253877 2.43932,2.074344 3.4114,3.297019 3.86684,4.863658 0.66632,2.292059 -0.0264,5.095735 -1.58473,6.414186 -1.50492,1.273242 -4.15727,1.870586 -6.00108,1.351522 z" id="path7364"></path><path style="fill:#000000;fill-opacity:1;stroke:#f5f5f5;stroke-width:0.293061;stroke-dasharray:1.17224, 0.293061" d="m 114.74609,38.346856 c -1.34831,-0.910034 -1.45422,-1.3973 -1.53186,-7.048028 l -0.0691,-5.029297 h -0.66436 -0.66436 V 24.902344 23.535156 H 112.5 113.18359 V 21.09375 18.652344 h 0.65413 c 0.35977,0 1.32657,-0.05684 2.14844,-0.126316 l 1.49431,-0.126315 v 2.390485 2.390486 l 1.07448,-0.0669 1.07449,-0.0669 -2.7e-4,1.29558 c -2.9e-4,1.427727 -0.0991,1.52784 -1.51394,1.533784 l -0.63476,0.0027 v 4.453125 c 0,3.203125 0.0658,4.518915 0.23437,4.6875 0.12891,0.128907 0.7002,0.234375 1.26954,0.234375 h 1.03515 v 1.541604 c 0,1.848322 0.0791,1.790734 -2.63672,1.919865 -1.81187,0.08615 -2.00256,0.0595 -2.63672,-0.368519 z" id="path7403"></path><path style="fill:#000000;fill-opacity:1;stroke:#f5f5f5;stroke-width:0.293061;stroke-dasharray:1.17224, 0.293061" d="m 122.36328,36.57865 v -1.715369 l 0.63477,-0.0017 c 0.34912,-9.34e-4 1.09619,-0.05712 1.66015,-0.124862 l 1.02539,-0.123164 v 1.693492 c 0,1.182289 -0.0737,1.71743 -0.24414,1.772794 -0.13427,0.04362 -0.88134,0.10965 -1.66015,0.146739 l -1.41602,0.06744 z" id="path7442"></path><path style="fill:#000000;fill-opacity:0;stroke:#f5f5f5;stroke-width:0.0518064;stroke-dasharray:0.207225, 0.0518064" d="m 147.01468,6.5607539 c -1.29363,-0.2402029 -2.03452,-1.4266387 -1.91247,-3.0625754 0.0343,-0.4605111 0.13918,-0.846751 0.34033,-1.2539431 0.2883,-0.5836215 0.66305,-0.9744478 1.18511,-1.235958 0.69096,-0.34611147 1.68364,-0.39371062 2.32211,-0.11134595 0.87712,0.38790315 1.39497,1.33754925 1.39629,2.56055595 0.001,1.0111268 -0.33511,1.8558179 -0.97444,2.4482112 -0.4027,0.3731341 -0.81951,0.5676828 -1.40546,0.6560121 -0.39437,0.05945 -0.6274,0.059216 -0.95147,-9.568e-4 z m 0.0259,-1.0073416 0.33663,-0.022292 v -0.7912 -0.7911998 l 0.09,0.010925 c 0.0854,0.010365 0.10186,0.048978 0.32106,0.753249 l 0.23104,0.7423241 0.36075,-0.012716 c 0.19842,-0.00699 0.42519,-0.022531 0.50394,-0.034527 l 0.14318,-0.021811 -0.30522,-0.8455789 c -0.24462,-0.6776854 -0.29567,-0.8509234 -0.25713,-0.8724953 0.20204,-0.1130656 0.36222,-0.3350203 0.41365,-0.5731937 0.0446,-0.2063494 0.025,-0.6415535 -0.0356,-0.7931275 -0.0603,-0.1506536 -0.24157,-0.333642 -0.38431,-0.3879109 -0.28142,-0.1069962 -1.00565,-0.1111772 -1.84957,-0.010678 l -0.164,0.019531 v 1.8266751 1.8266751 l 0.12948,-1.726e-4 c 0.0712,-1.036e-4 0.28096,-0.01021 0.46611,-0.022471 z" id="path7481"></path><path style="fill:#000000;fill-opacity:0;stroke:#f5f5f5;stroke-width:0.0518064;stroke-dasharray:0.207225, 0.0518064" d="M 147.37721,2.9394624 V 2.4435183 l 0.15303,-0.020975 c 0.32478,-0.044516 0.47476,0.1020605 0.47304,0.4623022 -0.002,0.3479891 -0.17773,0.5501671 -0.47933,0.5504323 l -0.14674,1.291e-4 z" id="path7520"></path></svg>